<svg width="623" height="100" viewBox="0 0 623 100" fill="none" xmlns="http://www.w3.org/2000/svg">
<path d="M0 31.3725C0 14.046 14.046 0 31.3725 0H556.314V100H31.3725C14.0459 100 0 85.954 0 68.6275V31.3725Z" fill="white"/>
<path d="M0 31.3725C0 14.046 14.046 0 31.3725 0H556.314V100H31.3725C14.0459 100 0 85.954 0 68.6275V31.3725Z" fill="url(#paint0_linear_2716_18771)"/>
<path d="M556.313 0L587.763 0C609.867 0 625.04 22.2479 616.97 42.8263L602.36 80.0812C597.648 92.0963 586.059 100 573.153 100H556.313V0Z" fill="url(#paint1_linear_2716_18771)"/>
<path d="M53.5231 50.1333C55.2529 50.1333 56.5949 49.6914 57.5493 48.8077C58.5036 47.8945 58.9808 46.7751 58.9808 45.4495V45.3611C58.9808 43.8293 58.4738 42.6657 57.4598 41.8704C56.4756 41.075 55.1187 40.6773 53.3889 40.6773H48.0654V50.1333H53.5231ZM41.1763 34.5354H53.9705C55.8493 34.5354 57.5194 34.8005 58.9808 35.3307C60.4719 35.8315 61.7245 36.5532 62.7385 37.4959C63.7823 38.4385 64.5726 39.5727 65.1095 40.8983C65.6761 42.1944 65.9594 43.6378 65.9594 45.2286V45.3169C65.9594 47.1139 65.6314 48.6899 64.9753 50.0449C64.3191 51.4 63.4095 52.5341 62.2464 53.4473C61.1131 54.3605 59.7711 55.0527 58.2203 55.5241C56.6993 55.9659 55.059 56.1869 53.2994 56.1869H48.0654V65.4661H41.1763V34.5354Z" fill="white"/>
<path d="M89.0412 52.5194L84.8809 42.489L80.7205 52.5194H89.0412ZM81.7942 34.3145H88.1466L101.567 65.4661H94.3647L91.5017 58.5288H78.2601L75.3971 65.4661H68.3737L81.7942 34.3145Z" fill="white"/>
<path d="M115.213 53.2705L103.179 34.5354H111.232L118.702 46.9518L126.307 34.5354H134.136L122.102 53.138V65.4661H115.213V53.2705Z" fill="white"/>
<path d="M149.418 34.5354H156.8L163.286 55.4799L170.31 34.447H176.215L183.238 55.4799L189.725 34.5354H196.927L186.235 65.687H180.241L173.173 45.4495L166.104 65.687H160.11L149.418 34.5354Z" fill="white"/>
<path d="M202.343 34.5354H209.232V65.4661H202.343V34.5354Z" fill="white"/>
<path d="M224.35 40.8099H214.821V34.5354H240.767V40.8099H231.239V65.4661H224.35V40.8099Z" fill="white"/>
<path d="M246.066 34.5354H252.955V46.7751H265.66V34.5354H272.549V65.4661H265.66V53.0496H252.955V65.4661H246.066V34.5354Z" fill="white"/>
<path d="M373.463 43.7877V41.8271C373.464 39.4241 372.989 37.0445 372.066 34.8242C371.143 32.604 369.791 30.5867 368.085 28.8875C366.379 27.1883 364.354 25.8405 362.126 24.9212C359.897 24.0018 357.509 23.5288 355.096 23.5293H322.288C317.419 23.5348 312.75 25.4643 309.307 28.8946C305.864 32.325 303.927 36.9759 303.921 41.8271V58.169C303.927 63.0203 305.864 67.671 309.307 71.1014C312.75 74.5317 317.419 76.4613 322.288 76.4668H355.091C359.963 76.4666 364.635 74.5388 368.08 71.1076C371.526 67.6763 373.462 63.0222 373.463 58.169V56.2083H344.921V58.169C344.926 60.4971 344.36 62.7911 343.273 64.8521C342.187 66.9132 340.612 68.6793 338.686 69.9972C337.97 69.504 337.301 68.9479 336.685 68.3361L336.684 68.335C334.154 65.8288 332.654 62.4724 332.478 58.9225C334.653 56.4547 335.853 53.2826 335.853 49.9983C335.853 46.714 334.654 43.5418 332.478 41.0741C332.594 38.8779 333.213 36.7374 334.29 34.8173C335.366 32.8972 336.87 31.2486 338.686 29.9985C340.612 31.3169 342.187 33.0829 343.274 35.1439C344.362 37.2049 344.929 39.4987 344.926 41.827V43.7876L373.463 43.7877ZM343.479 71.1085C346.453 68.1625 348.316 64.285 348.754 60.1297H369.395C368.917 63.5706 367.205 66.723 364.576 69.0051C361.947 71.2871 358.578 72.5446 355.091 72.5455H341.856C342.425 72.0988 342.967 71.6189 343.479 71.1085ZM329.62 43.7867C331.102 45.5185 331.917 47.7198 331.917 49.9959C331.918 52.2717 331.104 54.4735 329.623 56.2059H307.857V43.7867H329.62ZM333.901 71.1085C334.174 71.3802 334.456 71.6438 334.747 71.8992C334.638 71.9327 334.529 71.9671 334.419 71.998C334.296 72.0331 334.171 72.0664 334.047 72.0979C333.848 72.1482 333.649 72.1954 333.448 72.2371C333.319 72.2638 333.189 72.2872 333.059 72.3104C332.867 72.345 332.674 72.3787 332.48 72.4056C332.313 72.4284 332.144 72.4447 331.975 72.4619C331.817 72.4782 331.659 72.4974 331.5 72.5084C331.166 72.5312 330.829 72.5455 330.49 72.5455H322.288C318.803 72.5409 315.437 71.2814 312.811 68.9993C310.184 66.7173 308.474 63.5664 307.995 60.1272H328.629C329.065 64.283 330.927 68.1616 333.901 71.1085ZM328.628 39.8654H307.995C308.475 36.427 310.185 33.277 312.812 30.9956C315.438 28.7142 318.804 27.4553 322.288 27.4506H330.49C330.829 27.4506 331.165 27.4648 331.498 27.4874C331.662 27.4988 331.824 27.5185 331.987 27.5355C332.15 27.552 332.313 27.5677 332.475 27.5897C332.677 27.6176 332.877 27.6526 333.077 27.6889C333.197 27.7105 333.316 27.7317 333.435 27.7563C333.647 27.8002 333.858 27.8499 334.068 27.9034C334.177 27.9311 334.286 27.9603 334.394 27.9909C334.512 28.0237 334.628 28.0608 334.744 28.0965C331.3 31.1198 329.118 35.3187 328.628 39.8654ZM343.479 28.8875C342.967 28.3772 342.426 27.8974 341.857 27.4506H355.096C358.583 27.4501 361.952 28.7073 364.581 30.9897C367.209 33.2721 368.919 36.4253 369.395 39.8664H348.759C348.321 35.7102 346.456 31.832 343.479 28.8875V28.8875Z" fill="white"/>
<path d="M421.869 76.469C418.268 76.501 414.697 75.8046 411.374 74.4216C408.242 73.1359 405.401 71.2377 403.018 68.8389C400.636 66.4402 398.76 63.5897 397.503 60.4563C396.17 57.1823 395.497 53.6792 395.521 50.1465V50.0002C395.495 46.479 396.168 42.9876 397.503 39.7271C398.781 36.5994 400.65 33.745 403.007 31.3184C405.407 28.8713 408.278 26.9315 411.448 25.6153C414.889 24.1942 418.585 23.4852 422.31 23.5314C424.513 23.514 426.713 23.71 428.879 24.1166C430.727 24.4673 432.535 25.0063 434.273 25.725C435.852 26.3885 437.353 27.2222 438.75 28.2112C440.109 29.1771 441.386 30.253 442.567 31.4281L435.374 39.6905C433.536 38.0038 431.474 36.5768 429.246 35.4496C427.061 34.4027 424.661 33.8771 422.236 33.9143C420.176 33.8953 418.136 34.3191 416.255 35.157C414.454 35.9616 412.841 37.1323 411.521 38.5941C410.184 40.0816 409.139 41.805 408.438 43.6754C407.696 45.6507 407.323 47.7446 407.338 49.854V50.0002C407.325 52.121 407.698 54.2268 408.438 56.2153C409.129 58.0933 410.162 59.8283 411.485 61.3333C412.829 62.8484 414.485 64.0573 416.34 64.8774C418.196 65.6977 420.207 66.11 422.236 66.0862C424.815 66.166 427.373 65.6137 429.686 64.4778C431.887 63.2831 433.922 61.8082 435.741 60.0906L442.934 67.3289C441.662 68.6975 440.288 69.9685 438.824 71.1309C437.384 72.2651 435.82 73.2338 434.163 74.0195C432.397 74.8498 430.536 75.4634 428.622 75.8472C426.398 76.2819 424.135 76.4902 421.869 76.469Z" fill="white"/>
<path d="M450.126 24.4102H461.428V44.6638H482.273V24.4102H493.575V75.5923H482.273V55.0459H461.428V75.5923H450.126V24.4102Z" fill="white"/>
<path d="M504.584 24.4102H515.887V75.5923H504.584V24.4102Z" fill="white"/>
<path d="M526.897 24.4093H547.887C550.692 24.3655 553.484 24.7981 556.143 25.6886C558.426 26.4601 560.525 27.6921 562.309 29.3077C563.996 30.8694 565.325 32.7782 566.199 34.9018C567.127 37.1888 567.587 39.637 567.556 42.1036V42.2499C567.614 44.9455 567.063 47.6196 565.942 50.0735C564.908 52.2609 563.39 54.1859 561.501 55.7034C559.544 57.2538 557.299 58.4085 554.896 59.1031C552.264 59.8753 549.529 60.2574 546.786 60.2368H538.198V75.5914H526.897V24.4093ZM547.154 50.2197C549.99 50.2197 552.193 49.4764 553.758 47.9895C554.52 47.2866 555.122 46.4314 555.525 45.4799C555.93 44.5285 556.13 43.5024 556.107 42.4693V42.3231C556.178 41.236 555.992 40.1474 555.565 39.1445C555.138 38.1415 554.482 37.2519 553.648 36.5468C551.706 35.1359 549.332 34.4384 546.932 34.5727H538.198V50.2197H547.154Z" fill="white"/>
<path d="M579.486 33.0872C578.421 34.1354 577.123 34.6595 575.594 34.6595C574.065 34.6595 572.76 34.1354 571.678 33.0872C570.612 32.0391 570.08 30.725 570.08 29.1452C570.08 27.5805 570.612 26.2741 571.678 25.2259C572.76 24.1625 574.065 23.6309 575.594 23.6309C577.123 23.6309 578.421 24.1625 579.486 25.2259C580.568 26.2741 581.108 27.5805 581.108 29.1452C581.108 30.725 580.568 32.0391 579.486 33.0872ZM572.304 32.5404C573.169 33.4214 574.266 33.862 575.594 33.862C576.922 33.862 578.011 33.4214 578.861 32.5404C579.726 31.6441 580.158 30.5124 580.158 29.1452C580.158 27.7932 579.726 26.6691 578.861 25.7728C577.996 24.8765 576.907 24.4284 575.594 24.4284C574.281 24.4284 573.192 24.8765 572.327 25.7728C571.462 26.6691 571.03 27.7932 571.03 29.1452C571.03 30.5124 571.454 31.6441 572.304 32.5404ZM573.439 31.9935V26.1602H576.173C576.714 26.1602 577.162 26.3197 577.517 26.6387C577.872 26.9425 578.05 27.3299 578.05 27.8008C578.05 28.5451 577.679 29.0085 576.938 29.1908V29.2135C577.494 29.3655 577.803 29.7604 577.865 30.3984C577.88 30.5352 577.895 30.6871 577.911 30.8542C577.926 31.0213 577.934 31.158 577.934 31.2643C577.949 31.3707 577.957 31.477 577.957 31.5833C577.973 31.6897 577.988 31.7732 578.004 31.834C578.034 31.8796 578.073 31.9099 578.119 31.9251V31.9935H576.984C576.845 31.9327 576.76 31.4846 576.729 30.6491C576.698 29.9807 576.32 29.6465 575.594 29.6465H574.621V31.9935H573.439ZM574.621 27.1172V28.7578H575.918C576.567 28.7578 576.891 28.4844 576.891 27.9375C576.891 27.3906 576.567 27.1172 575.918 27.1172H574.621Z" fill="white"/>
<defs>
<linearGradient id="paint0_linear_2716_18771" x1="451.319" y1="32.0833" x2="496.524" y2="-84.1946" gradientUnits="userSpaceOnUse">
<stop stop-color="#5147DD"/>
<stop offset="1" stop-color="#DD80DD"/>
</linearGradient>
<linearGradient id="paint1_linear_2716_18771" x1="551.902" y1="68.3333" x2="614.921" y2="28.9359" gradientUnits="userSpaceOnUse">
<stop stop-color="#5147DD"/>
<stop offset="1" stop-color="#DD80DD"/>
</linearGradient>
</defs>
</svg>
